<svg width="146" height="24" viewBox="0 0 146 24" fill="none" xmlns="http://www.w3.org/2000/svg">
    <path d="M5.832 6.376H9.144V9.256H5.928V19H2.184V9.256H0.192V6.376H2.184V5.8C2.184 4.328 2.616 3.16 3.48 2.296C4.36 1.432 5.592 0.999999 7.176 0.999999C7.736 0.999999 8.264 1.064 8.76 1.192C9.272 1.304 9.696 1.472 10.032 1.696L9.048 4.408C8.616 4.104 8.112 3.952 7.536 3.952C6.4 3.952 5.832 4.576 5.832 5.824V6.376ZM11.016 1.192H14.76V19H11.016V1.192ZM23.4594 5.896C25.4594 5.896 26.9954 6.376 28.0674 7.336C29.1394 8.28 29.6754 9.712 29.6754 11.632V19H26.1714V17.392C25.4674 18.592 24.1554 19.192 22.2354 19.192C21.2434 19.192 20.3794 19.024 19.6434 18.688C18.9234 18.352 18.3714 17.888 17.9874 17.296C17.6034 16.704 17.4114 16.032 17.4114 15.28C17.4114 14.08 17.8594 13.136 18.7554 12.448C19.6674 11.76 21.0674 11.416 22.9554 11.416H25.9314C25.9314 10.6 25.6834 9.976 25.1874 9.544C24.6914 9.096 23.9474 8.872 22.9554 8.872C22.2674 8.872 21.5874 8.984 20.9154 9.208C20.2594 9.416 19.6994 9.704 19.2354 10.072L17.8914 7.456C18.5954 6.96 19.4354 6.576 20.4114 6.304C21.4034 6.032 22.4194 5.896 23.4594 5.896ZM23.1714 16.672C23.8114 16.672 24.3794 16.528 24.8754 16.24C25.3714 15.936 25.7234 15.496 25.9314 14.92V13.6H23.3634C21.8274 13.6 21.0594 14.104 21.0594 15.112C21.0594 15.592 21.2434 15.976 21.6114 16.264C21.9954 16.536 22.5154 16.672 23.1714 16.672ZM46.5246 6.088V16.84C46.5246 19.208 45.9086 20.968 44.6766 22.12C43.4446 23.272 41.6446 23.848 39.2766 23.848C38.0286 23.848 36.8446 23.696 35.7246 23.392C34.6046 23.088 33.6766 22.648 32.9406 22.072L34.4286 19.384C34.9726 19.832 35.6606 20.184 36.4926 20.44C37.3246 20.712 38.1566 20.848 38.9886 20.848C40.2846 20.848 41.2366 20.552 41.8446 19.96C42.4686 19.384 42.7806 18.504 42.7806 17.32V16.768C41.8046 17.84 40.4446 18.376 38.7006 18.376C37.5166 18.376 36.4286 18.12 35.4366 17.608C34.4606 17.08 33.6846 16.344 33.1086 15.4C32.5326 14.456 32.2446 13.368 32.2446 12.136C32.2446 10.904 32.5326 9.816 33.1086 8.872C33.6846 7.928 34.4606 7.2 35.4366 6.688C36.4286 6.16 37.5166 5.896 38.7006 5.896C40.5726 5.896 41.9966 6.512 42.9726 7.744V6.088H46.5246ZM39.4446 15.304C40.4366 15.304 41.2446 15.016 41.8686 14.44C42.5086 13.848 42.8286 13.08 42.8286 12.136C42.8286 11.192 42.5086 10.432 41.8686 9.856C41.2446 9.264 40.4366 8.968 39.4446 8.968C38.4526 8.968 37.6366 9.264 36.9966 9.856C36.3566 10.432 36.0366 11.192 36.0366 12.136C36.0366 13.08 36.3566 13.848 36.9966 14.44C37.6366 15.016 38.4526 15.304 39.4446 15.304ZM63.3293 6.088V16.84C63.3293 19.208 62.7133 20.968 61.4813 22.12C60.2493 23.272 58.4493 23.848 56.0813 23.848C54.8333 23.848 53.6493 23.696 52.5293 23.392C51.4093 23.088 50.4813 22.648 49.7453 22.072L51.2333 19.384C51.7773 19.832 52.4653 20.184 53.2973 20.44C54.1293 20.712 54.9613 20.848 55.7933 20.848C57.0893 20.848 58.0413 20.552 58.6493 19.96C59.2733 19.384 59.5853 18.504 59.5853 17.32V16.768C58.6093 17.84 57.2493 18.376 55.5053 18.376C54.3213 18.376 53.2333 18.12 52.2413 17.608C51.2653 17.08 50.4893 16.344 49.9133 15.4C49.3373 14.456 49.0493 13.368 49.0493 12.136C49.0493 10.904 49.3373 9.816 49.9133 8.872C50.4893 7.928 51.2653 7.2 52.2413 6.688C53.2333 6.16 54.3213 5.896 55.5053 5.896C57.3773 5.896 58.8013 6.512 59.7773 7.744V6.088H63.3293ZM56.2493 15.304C57.2413 15.304 58.0493 15.016 58.6733 14.44C59.3133 13.848 59.6333 13.08 59.6333 12.136C59.6333 11.192 59.3133 10.432 58.6733 9.856C58.0493 9.264 57.2413 8.968 56.2493 8.968C55.2573 8.968 54.4413 9.264 53.8013 9.856C53.1613 10.432 52.8413 11.192 52.8413 12.136C52.8413 13.08 53.1613 13.848 53.8013 14.44C54.4413 15.016 55.2573 15.304 56.2493 15.304ZM80.1339 6.088V16.84C80.1339 19.208 79.5179 20.968 78.2859 22.12C77.0539 23.272 75.2539 23.848 72.8859 23.848C71.6379 23.848 70.4539 23.696 69.3339 23.392C68.2139 23.088 67.2859 22.648 66.5499 22.072L68.0379 19.384C68.5819 19.832 69.2699 20.184 70.1019 20.44C70.9339 20.712 71.7659 20.848 72.5979 20.848C73.8939 20.848 74.8459 20.552 75.4539 19.96C76.0779 19.384 76.3899 18.504 76.3899 17.32V16.768C75.4139 17.84 74.0539 18.376 72.3099 18.376C71.1259 18.376 70.0379 18.12 69.0459 17.608C68.0699 17.08 67.2939 16.344 66.7179 15.4C66.1419 14.456 65.8539 13.368 65.8539 12.136C65.8539 10.904 66.1419 9.816 66.7179 8.872C67.2939 7.928 68.0699 7.2 69.0459 6.688C70.0379 6.16 71.1259 5.896 72.3099 5.896C74.1819 5.896 75.6059 6.512 76.5819 7.744V6.088H80.1339ZM73.0539 15.304C74.0459 15.304 74.8539 15.016 75.4779 14.44C76.1179 13.848 76.4379 13.08 76.4379 12.136C76.4379 11.192 76.1179 10.432 75.4779 9.856C74.8539 9.264 74.0459 8.968 73.0539 8.968C72.0619 8.968 71.2459 9.264 70.6059 9.856C69.9659 10.432 69.6459 11.192 69.6459 12.136C69.6459 13.08 69.9659 13.848 70.6059 14.44C71.2459 15.016 72.0619 15.304 73.0539 15.304ZM96.2666 12.592C96.2666 12.64 96.2426 12.976 96.1946 13.6H86.4266C86.6026 14.4 87.0186 15.032 87.6746 15.496C88.3306 15.96 89.1466 16.192 90.1226 16.192C90.7946 16.192 91.3866 16.096 91.8986 15.904C92.4266 15.696 92.9146 15.376 93.3626 14.944L95.3546 17.104C94.1386 18.496 92.3626 19.192 90.0266 19.192C88.5706 19.192 87.2826 18.912 86.1626 18.352C85.0426 17.776 84.1786 16.984 83.5706 15.976C82.9626 14.968 82.6586 13.824 82.6586 12.544C82.6586 11.28 82.9546 10.144 83.5466 9.136C84.1546 8.112 84.9786 7.32 86.0186 6.76C87.0746 6.184 88.2506 5.896 89.5466 5.896C90.8106 5.896 91.9546 6.168 92.9786 6.712C94.0026 7.256 94.8026 8.04 95.3786 9.064C95.9706 10.072 96.2666 11.248 96.2666 12.592ZM89.5706 8.728C88.7226 8.728 88.0106 8.968 87.4346 9.448C86.8586 9.928 86.5066 10.584 86.3786 11.416H92.7386C92.6106 10.6 92.2586 9.952 91.6826 9.472C91.1066 8.976 90.4026 8.728 89.5706 8.728ZM111.911 1.192V19H108.335V17.512C107.407 18.632 106.063 19.192 104.303 19.192C103.087 19.192 101.983 18.92 100.991 18.376C100.015 17.832 99.2473 17.056 98.6873 16.048C98.1273 15.04 97.8473 13.872 97.8473 12.544C97.8473 11.216 98.1273 10.048 98.6873 9.04C99.2473 8.032 100.015 7.256 100.991 6.712C101.983 6.168 103.087 5.896 104.303 5.896C105.951 5.896 107.239 6.416 108.167 7.456V1.192H111.911ZM104.951 16.12C105.895 16.12 106.679 15.8 107.303 15.16C107.927 14.504 108.239 13.632 108.239 12.544C108.239 11.456 107.927 10.592 107.303 9.952C106.679 9.296 105.895 8.968 104.951 8.968C103.991 8.968 103.199 9.296 102.575 9.952C101.951 10.592 101.639 11.456 101.639 12.544C101.639 13.632 101.951 14.504 102.575 15.16C103.199 15.8 103.991 16.12 104.951 16.12ZM118.364 19.288C117.38 19.288 116.552 18.952 115.88 18.28C115.208 17.608 114.872 16.768 114.872 15.76C114.872 14.728 115.208 13.9 115.88 13.276C116.552 12.628 117.38 12.304 118.364 12.304C119.348 12.304 120.176 12.628 120.848 13.276C121.52 13.9 121.856 14.728 121.856 15.76C121.856 16.768 121.52 17.608 120.848 18.28C120.176 18.952 119.348 19.288 118.364 19.288ZM124.798 6.088H128.542V19H124.798V6.088ZM126.67 4.288C125.982 4.288 125.422 4.088 124.99 3.688C124.558 3.288 124.342 2.792 124.342 2.2C124.342 1.608 124.558 1.112 124.99 0.711999C125.422 0.311999 125.982 0.111999 126.67 0.111999C127.358 0.111999 127.918 0.303999 128.35 0.688C128.782 1.072 128.998 1.552 128.998 2.128C128.998 2.752 128.782 3.272 128.35 3.688C127.918 4.088 127.358 4.288 126.67 4.288ZM138.161 19.192C136.801 19.192 135.577 18.912 134.489 18.352C133.417 17.776 132.577 16.984 131.969 15.976C131.361 14.968 131.057 13.824 131.057 12.544C131.057 11.264 131.361 10.12 131.969 9.112C132.577 8.104 133.417 7.32 134.489 6.76C135.577 6.184 136.801 5.896 138.161 5.896C139.521 5.896 140.737 6.184 141.809 6.76C142.881 7.32 143.721 8.104 144.329 9.112C144.937 10.12 145.241 11.264 145.241 12.544C145.241 13.824 144.937 14.968 144.329 15.976C143.721 16.984 142.881 17.776 141.809 18.352C140.737 18.912 139.521 19.192 138.161 19.192ZM138.161 16.12C139.121 16.12 139.905 15.8 140.513 15.16C141.137 14.504 141.449 13.632 141.449 12.544C141.449 11.456 141.137 10.592 140.513 9.952C139.905 9.296 139.121 8.968 138.161 8.968C137.201 8.968 136.409 9.296 135.785 9.952C135.161 10.592 134.849 11.456 134.849 12.544C134.849 13.632 135.161 14.504 135.785 15.16C136.409 15.8 137.201 16.12 138.161 16.12Z" fill="white"/>
</svg>
